# xmcd
# 
# Track frame offsets:
#     183
#     15093
#     30128
#     44448
#     57268
#     70803
#     84658
#     95915
#     106948
#     123195
#     134408
#     149555
#     164445
#     178288
#     189175
#     203675
#     213715
#     229850
# 
# Disc length: 3299
# 
# Revision: 2
# Processed by: cddbd v1.5.2PL0 Copyright (c) Steve Scherf et al.
# Submitted via: fre:ac v1.0.17
# 
DISCID=fb0ce112
DTITLE=王芷蕾 - 83
DYEAR=0
DGENRE=
TTITLE0=夜來香
TTITLE1=三年
TTITLE2=三個夢
TTITLE3=何日君再來
TTITLE4=明日千里寄相思
TTITLE5=癡癡的等
TTITLE6=訴不盡的情意
TTITLE7=雪裡紅
TTITLE8=午夜香吻
TTITLE9=愛神的箭
TTITLE10=不如歸去
TTITLE11=一路順風
TTITLE12=雪山恨思
TTITLE13=遙遠寄相思
TTITLE14=夢裡相思
TTITLE15=芳心靜如水
TTITLE16=春來人不來
TTITLE17=訴衷情
EXTD=
EXTT0=
EXTT1=
EXTT2=
EXTT3=
EXTT4=
EXTT5=
EXTT6=
EXTT7=
EXTT8=
EXTT9=
EXTT10=
EXTT11=
EXTT12=
EXTT13=
EXTT14=
EXTT15=
EXTT16=
EXTT17=
PLAYORDER=
